<?xml version="1.0" encoding="UTF-8"?>
<svg version="1.1" xmlns="http://www.w3.org/2000/svg" width="64" height="64">
<path d="M0 0 C21.12 0 42.24 0 64 0 C64 21.12 64 42.24 64 64 C42.88 64 21.76 64 0 64 C0 42.88 0 21.76 0 0 Z " fill="#030101" transform="translate(0,0)"/>
<path d="M0 0 C13.2 0 26.4 0 40 0 C37.88486583 4.23026833 37.04951675 4.97524163 33 7 C28.75481964 8.26466027 24.64738376 8.22125893 20.25 8.25 C19.08984375 8.2809375 19.08984375 8.2809375 17.90625 8.3125 C11.86284982 8.35305973 6.04697021 7.61242777 1.27441406 3.52050781 C0 2 0 2 0 0 Z " fill="#EBF5EF" transform="translate(12,45)"/>
<path d="M0 0 C0.33 0 0.66 0 1 0 C1 9.57 1 19.14 1 29 C-8.57 29 -18.14 29 -28 29 C-28 28.67 -28 28.34 -28 28 C-26.74896484 27.70609375 -26.74896484 27.70609375 -25.47265625 27.40625 C-16.51018813 25.02447153 -9.94171834 21.81121905 -4.6328125 13.984375 C-2.23688496 9.54229037 -1.0529263 4.91365608 0 0 Z " fill="#2C83A8" transform="translate(63,35)"/>
<path d="M0 0 C0.33 0 0.66 0 1 0 C1.1959375 0.83402344 1.391875 1.66804688 1.59375 2.52734375 C4.13512219 12.09035205 7.97114058 19.13562504 16.5625 24.4375 C20.05656598 26.02571181 23.28237572 27.0895614 27 28 C27 28.33 27 28.66 27 29 C18.09 29 9.18 29 0 29 C0 19.43 0 9.86 0 0 Z " fill="#2C84A9" transform="translate(0,35)"/>
<path d="M0 0 C9.57 0 19.14 0 29 0 C29 8.91 29 17.82 29 27 C27 24 27 24 25.875 20.375 C23.40219376 13.6400202 18.33985028 7.92624699 12 4.5625 C8.11185249 2.87300733 4.13787099 1.88668664 0 1 C0 0.67 0 0.34 0 0 Z " fill="#2C84A9" transform="translate(35,0)"/>
<path d="M0 0 C8.91 0 17.82 0 27 0 C24 2 24 2 20.375 3.125 C13.79747952 5.52785803 8.18738202 10.59289876 4.5625 16.5625 C2.97428819 20.05656598 1.9104386 23.28237572 1 27 C0.67 27 0.34 27 0 27 C0 18.09 0 9.18 0 0 Z " fill="#2D85AA" transform="translate(0,0)"/>
<path d="M0 0 C2.5 0.25 2.5 0.25 4.5 2.25 C4.75 4.75 4.75 4.75 4.5 7.25 C2.5 9.25 2.5 9.25 0 9.5 C-2.5 9.25 -2.5 9.25 -4.5 7.25 C-4.75 4.75 -4.75 4.75 -4.5 2.25 C-2.5 0.25 -2.5 0.25 0 0 Z " fill="#E7F1EB" transform="translate(45.5,16.75)"/>
<path d="M0 0 C2.5 0.25 2.5 0.25 4.5 2.25 C4.75 4.75 4.75 4.75 4.5 7.25 C2.5 9.25 2.5 9.25 0 9.5 C-2.5 9.25 -2.5 9.25 -4.5 7.25 C-4.75 4.75 -4.75 4.75 -4.5 2.25 C-2.5 0.25 -2.5 0.25 0 0 Z " fill="#E7F1EB" transform="translate(18.5,16.75)"/>
</svg>
